<?xml version="1.0" encoding="UTF-8" standalone="no"?>
<svg width="1200" height="630" viewBox="0 0 1200 630" fill="none" xmlns="http://www.w3.org/2000/svg">
  <!-- 背景 -->
  <rect width="1200" height="630" fill="#070A14"/>
  
  <!-- グラデーション背景 -->
  <rect width="1200" height="630" fill="url(#paint0_radial)" opacity="0.7"/>
  
  <!-- 粒子効果 (ドット) -->
  <g opacity="0.5">
    <circle cx="200" cy="100" r="2" fill="#00A5FF" opacity="0.8"/>
    <circle cx="300" cy="200" r="3" fill="#00A5FF" opacity="0.7"/>
    <circle cx="150" cy="300" r="2" fill="#00A5FF" opacity="0.6"/>
    <circle cx="250" cy="400" r="3" fill="#00A5FF" opacity="0.7"/>
    <circle cx="100" cy="500" r="2" fill="#00A5FF" opacity="0.8"/>
    
    <circle cx="1000" cy="100" r="3" fill="#00A5FF" opacity="0.7"/>
    <circle cx="900" cy="200" r="2" fill="#00A5FF" opacity="0.6"/>
    <circle cx="1050" cy="300" r="3" fill="#00A5FF" opacity="0.8"/>
    <circle cx="950" cy="400" r="2" fill="#00A5FF" opacity="0.7"/>
    <circle cx="1100" cy="500" r="3" fill="#00A5FF" opacity="0.6"/>
    
    <circle cx="400" cy="150" r="3" fill="#00A5FF" opacity="0.6"/>
    <circle cx="500" cy="250" r="2" fill="#00A5FF" opacity="0.7"/>
    <circle cx="600" cy="350" r="3" fill="#00A5FF" opacity="0.8"/>
    <circle cx="700" cy="450" r="2" fill="#00A5FF" opacity="0.7"/>
    <circle cx="800" cy="550" r="3" fill="#00A5FF" opacity="0.6"/>
    
    <circle cx="300" cy="50" r="2" fill="#00A5FF" opacity="0.7"/>
    <circle cx="450" cy="100" r="3" fill="#00A5FF" opacity="0.8"/>
    <circle cx="600" cy="150" r="2" fill="#00A5FF" opacity="0.6"/>
    <circle cx="750" cy="200" r="3" fill="#00A5FF" opacity="0.7"/>
    <circle cx="900" cy="250" r="2" fill="#00A5FF" opacity="0.8"/>
  </g>
  
  <!-- ロゴ -->
  <text x="600" y="250" text-anchor="middle" font-family="Inter, sans-serif" font-weight="700" font-size="80" fill="white">&lt;SB/&gt;</text>
  
  <!-- タイトル -->
  <text x="600" y="350" text-anchor="middle" font-family="Inter, sans-serif" font-weight="700" font-size="60" fill="white">Shabaraba</text>
  
  <!-- サブタイトル -->
  <text x="600" y="425" text-anchor="middle" font-family="Inter, sans-serif" font-weight="500" font-size="40" fill="rgba(255, 255, 255, 0.8)">Developer Portfolio</text>
  
  <!-- グラデーション定義 -->
  <defs>
    <radialGradient id="paint0_radial" cx="0" cy="0" r="1" gradientUnits="userSpaceOnUse" gradientTransform="translate(600 315) rotate(90) scale(600)">
      <stop offset="0" stop-color="#00A5FF" stop-opacity="0.3"/>
      <stop offset="1" stop-color="#070A14" stop-opacity="0"/>
    </radialGradient>
  </defs>
</svg>